<svg xmlns="http://www.w3.org/2000/svg" width="150" height="57" viewBox="0 0 150 57">
  <defs>
    <linearGradient id="bg" x1="0" y1="0" x2="150" y2="57" gradientUnits="userSpaceOnUse">
      <stop stop-color="#11111b"/>
      <stop offset="1" stop-color="#1e1e2e"/>
    </linearGradient>
  </defs>
  <rect width="150" height="57" fill="url(#bg)"/>
  <g transform="translate(10, 8) scale(0.34)">
    <ellipse cx="60" cy="34" rx="34" ry="11" fill="#89b4fa"/>
    <path d="M26 34v44c0 8.8 15.2 16 34 16s34-7.2 34-16V34" fill="#6a9fd8"/>
    <path d="M42 78 L42 92 L48 92 L48 84 L54 92 L60 92 L52 82 L60 72 L54 72 L48 80 L48 72 L42 72 Z" fill="#11111b" opacity="0.85"/>
    <path d="M64 72 H70 C76 72 80 75.5 80 80.5 C80 85.5 76 89 70 89 H64 V72 Z M70 84.5 C72.8 84.5 74.5 83 74.5 80.5 C74.5 78 72.8 76.5 70 76.5 H68.5 V84.5 H70 Z" fill="#11111b" opacity="0.85"/>
  </g>
  <text x="58" y="24" fill="#cdd6f4" font-family="Inter, Arial, sans-serif" font-size="11" font-weight="600">LogicVerse</text>
  <text x="58" y="40" fill="#9399b2" font-family="Inter, Arial, sans-serif" font-size="10" font-weight="400">DB Studio</text>
</svg>
