<svg xmlns="http://www.w3.org/2000/svg" width="164" height="314" viewBox="0 0 164 314">
  <defs>
    <linearGradient id="sidebar-bg" x1="0" y1="0" x2="164" y2="314" gradientUnits="userSpaceOnUse">
      <stop stop-color="#11111b"/>
      <stop offset="0.55" stop-color="#181825"/>
      <stop offset="1" stop-color="#1e1e2e"/>
    </linearGradient>
  </defs>
  <rect width="164" height="314" fill="url(#sidebar-bg)"/>
  <g transform="translate(22, 72) scale(1)">
    <ellipse cx="60" cy="34" rx="34" ry="11" fill="#89b4fa"/>
    <path d="M26 34v44c0 8.8 15.2 16 34 16s34-7.2 34-16V34" fill="#6a9fd8"/>
    <ellipse cx="60" cy="34" rx="34" ry="11" fill="none" stroke="#7aa2e0" stroke-width="1.2" opacity="0.55"/>
    <path d="M38 48h44M38 58h44M38 68h44M48 48v28M60 48v28M72 48v28" stroke="#11111b" stroke-width="2.2" stroke-linecap="round" opacity="0.35"/>
    <path d="M42 78 L42 92 L48 92 L48 84 L54 92 L60 92 L52 82 L60 72 L54 72 L48 80 L48 72 L42 72 Z" fill="#11111b" opacity="0.85"/>
    <path d="M64 72 H70 C76 72 80 75.5 80 80.5 C80 85.5 76 89 70 89 H64 V72 Z M70 84.5 C72.8 84.5 74.5 83 74.5 80.5 C74.5 78 72.8 76.5 70 76.5 H68.5 V84.5 H70 Z" fill="#11111b" opacity="0.85"/>
    <path d="M82 30 L94 24 L90 36 Z" fill="#cba6f7"/>
  </g>
  <text x="82" y="248" text-anchor="middle" fill="#cdd6f4" font-family="Inter, Arial, sans-serif" font-size="18" font-weight="600">LogicVerse</text>
  <text x="82" y="270" text-anchor="middle" fill="#9399b2" font-family="Inter, Arial, sans-serif" font-size="12" font-weight="400">DB Studio</text>
</svg>
