<svg xmlns="http://www.w3.org/2000/svg" viewBox="0 0 120 120" fill="none" aria-hidden="true">
  <defs>
    <linearGradient id="lv-body" x1="24" y1="28" x2="96" y2="96" gradientUnits="userSpaceOnUse">
      <stop stop-color="#89b4fa"/>
      <stop offset="1" stop-color="#6a9fd8"/>
    </linearGradient>
    <linearGradient id="lv-top" x1="36" y1="24" x2="84" y2="48" gradientUnits="userSpaceOnUse">
      <stop stop-color="#a6c8ff"/>
      <stop offset="1" stop-color="#89b4fa"/>
    </linearGradient>
    <linearGradient id="lv-accent" x1="48" y1="52" x2="88" y2="92" gradientUnits="userSpaceOnUse">
      <stop stop-color="#cba6f7"/>
      <stop offset="1" stop-color="#9d7fd4"/>
    </linearGradient>
  </defs>

  <!-- Database cylinder -->
  <ellipse cx="60" cy="34" rx="34" ry="11" fill="url(#lv-top)"/>
  <path
    d="M26 34v44c0 8.8 15.2 16 34 16s34-7.2 34-16V34"
    fill="url(#lv-body)"
  />
  <ellipse cx="60" cy="34" rx="34" ry="11" fill="none" stroke="#7aa2e0" stroke-width="1.2" opacity="0.55"/>

  <!-- Table grid -->
  <path d="M38 48h44M38 58h44M38 68h44M48 48v28M60 48v28M72 48v28" stroke="#1e1e2e" stroke-width="2.2" stroke-linecap="round" opacity="0.35"/>

  <!-- LV monogram -->
  <path
    d="M42 78 L42 92 L48 92 L48 84 L54 92 L60 92 L52 82 L60 72 L54 72 L48 80 L48 72 L42 72 Z"
    fill="#11111b"
    opacity="0.85"
  />
  <path
    d="M64 72 H70 C76 72 80 75.5 80 80.5 C80 85.5 76 89 70 89 H64 V72 Z M70 84.5 C72.8 84.5 74.5 83 74.5 80.5 C74.5 78 72.8 76.5 70 76.5 H68.5 V84.5 H70 Z"
    fill="#11111b"
    opacity="0.85"
  />

  <!-- Speed accent -->
  <path d="M82 30 L94 24 L90 36 Z" fill="url(#lv-accent)"/>
  <path d="M88 38 L100 32" stroke="#cba6f7" stroke-width="2.5" stroke-linecap="round"/>
</svg>
